<svg xmlns="http://www.w3.org/2000/svg" width="77.942" height="123.527" viewBox="0 0 77.942 123.527">
  <g id="Grupo_37" data-name="Grupo 37" transform="translate(-1991.759 -229.789)">
    <g id="settings" transform="translate(1994 230)">
      <path id="Trazado_16" data-name="Trazado 16" d="M13.592,25.579H11.987a2.357,2.357,0,0,1-2.355-2.355v-.543a10.326,10.326,0,0,1-1.6-.666l-.385.385a2.355,2.355,0,0,1-3.33,0L3.178,21.265a2.355,2.355,0,0,1,0-3.33l.385-.385a10.327,10.327,0,0,1-.666-1.6H2.355A2.357,2.357,0,0,1,0,13.592V11.987A2.357,2.357,0,0,1,2.355,9.632H2.9a10.329,10.329,0,0,1,.666-1.6l-.385-.385a2.355,2.355,0,0,1,0-3.33L4.314,3.179a2.354,2.354,0,0,1,3.33,0l.385.385a10.336,10.336,0,0,1,1.6-.666V2.355A2.357,2.357,0,0,1,11.987,0h1.605a2.357,2.357,0,0,1,2.355,2.355V2.9a10.326,10.326,0,0,1,1.6.666l.385-.385a2.355,2.355,0,0,1,3.33,0L22.4,4.313a2.355,2.355,0,0,1,0,3.33l-.385.385a10.327,10.327,0,0,1,.666,1.6h.543a2.357,2.357,0,0,1,2.355,2.355v1.605a2.357,2.357,0,0,1-2.355,2.355h-.543a10.329,10.329,0,0,1-.666,1.6l.385.385a2.355,2.355,0,0,1,0,3.33L21.265,22.4a2.354,2.354,0,0,1-3.33,0l-.385-.385a10.336,10.336,0,0,1-1.6.666v.543A2.357,2.357,0,0,1,13.592,25.579ZM8.279,20.442a8.833,8.833,0,0,0,2.29.95.749.749,0,0,1,.562.726v1.106a.857.857,0,0,0,.856.856h1.605a.857.857,0,0,0,.856-.856V22.118a.749.749,0,0,1,.562-.726,8.833,8.833,0,0,0,2.29-.95.749.749,0,0,1,.911.115l.784.784a.856.856,0,0,0,1.21,0l1.135-1.135a.856.856,0,0,0,0-1.21l-.784-.784a.749.749,0,0,1-.115-.911,8.832,8.832,0,0,0,.95-2.29.749.749,0,0,1,.726-.562h1.106a.857.857,0,0,0,.856-.856V11.987a.857.857,0,0,0-.856-.856H22.118a.749.749,0,0,1-.726-.562,8.833,8.833,0,0,0-.95-2.29.749.749,0,0,1,.115-.911l.784-.784a.856.856,0,0,0,0-1.21L20.206,4.238a.856.856,0,0,0-1.21,0l-.784.784a.749.749,0,0,1-.911.115,8.833,8.833,0,0,0-2.29-.95.749.749,0,0,1-.562-.726V2.355a.857.857,0,0,0-.856-.856H11.987a.857.857,0,0,0-.856.856V3.461a.749.749,0,0,1-.562.726,8.833,8.833,0,0,0-2.29.95.749.749,0,0,1-.911-.115l-.784-.784a.856.856,0,0,0-1.21,0L4.238,5.373a.856.856,0,0,0,0,1.21l.784.784a.749.749,0,0,1,.115.911,8.832,8.832,0,0,0-.95,2.29.749.749,0,0,1-.726.562H2.355a.857.857,0,0,0-.856.856v1.605a.857.857,0,0,0,.856.856H3.461a.749.749,0,0,1,.726.562,8.833,8.833,0,0,0,.95,2.29.749.749,0,0,1-.115.911l-.784.784a.856.856,0,0,0,0,1.21l1.135,1.135a.856.856,0,0,0,1.21,0l.784-.784A.753.753,0,0,1,8.279,20.442Z"/>
      <path id="Trazado_17" data-name="Trazado 17" d="M150.165,155.731a5.565,5.565,0,1,1,5.565-5.565A5.572,5.572,0,0,1,150.165,155.731Zm0-9.632a4.067,4.067,0,1,0,4.067,4.067A4.071,4.071,0,0,0,150.165,146.1Z" transform="translate(-137.376 -137.376)"/>
    </g>
    <g id="Grupo_35" data-name="Grupo 35" transform="translate(1693 167)">
      <path id="Trazado_18" data-name="Trazado 18" d="M91.326,12A5.994,5.994,0,1,1,97.32,6,6,6,0,0,1,91.326,12Zm0-10.19a4.2,4.2,0,1,0,4.2,4.2,4.2,4.2,0,0,0-4.2-4.2Zm0,0" transform="translate(268.463 62.781)"/>
      <path id="Trazado_19" data-name="Trazado 19" d="M20.68,266.8H.9a.9.9,0,0,1-.9-.9v-4.2a5.7,5.7,0,0,1,5.694-5.694h10.19a5.7,5.7,0,0,1,5.694,5.694v4.2A.9.9,0,0,1,20.68,266.8ZM1.8,265H19.781v-3.3a3.9,3.9,0,0,0-3.9-3.9H5.694a3.9,3.9,0,0,0-3.9,3.9Zm0,0" transform="translate(349 -178.833)"/>
    </g>
    <path id="search-solid" d="M30.467,26.708l-6.015-6.015a1.447,1.447,0,0,0-1.026-.422h-.983a12.543,12.543,0,1,0-2.172,2.172v.983a1.447,1.447,0,0,0,.422,1.026l6.015,6.015a1.442,1.442,0,0,0,2.045,0l1.707-1.707A1.455,1.455,0,0,0,30.467,26.708ZM12.549,20.271a7.722,7.722,0,1,1,7.722-7.722A7.718,7.718,0,0,1,12.549,20.271Z" transform="translate(2038.814 274.318)" fill="#cdcdcd"/>
    <path id="heart-solid_1_" data-name="heart-solid (1)" d="M26.321,33.712a7.789,7.789,0,0,0-10.629.775L14.57,35.643l-1.122-1.156a7.789,7.789,0,0,0-10.629-.775,8.179,8.179,0,0,0-.564,11.842L13.277,56.934a1.786,1.786,0,0,0,2.58,0L26.88,45.554A8.174,8.174,0,0,0,26.321,33.712Z" transform="translate(1992.773 294.83)" fill="none" stroke="#cdcdcd" stroke-width="2"/>
    <g id="Grupo_36" data-name="Grupo 36" transform="translate(1830.233 313.037)">
      <path id="Trazado_18-2" data-name="Trazado 18" d="M92.6,14.548a7.27,7.27,0,1,1,7.27-7.27A7.278,7.278,0,0,1,92.6,14.548Zm0-12.359a5.089,5.089,0,1,0,5.089,5.089A5.095,5.095,0,0,0,92.6,2.189Zm0,0" transform="translate(133.484 8.992)" fill="#cdcdcd" stroke="#cdcdcd" stroke-width="0.5"/>
      <path id="Trazado_19-2" data-name="Trazado 19" d="M25.081,269.094H1.09A1.091,1.091,0,0,1,0,268v-5.089a6.915,6.915,0,0,1,6.906-6.906H19.266a6.915,6.915,0,0,1,6.906,6.906V268A1.091,1.091,0,0,1,25.081,269.094Zm-22.9-2.181h21.81v-4a4.731,4.731,0,0,0-4.725-4.725H6.906a4.731,4.731,0,0,0-4.725,4.725Zm0,0" transform="translate(213 -229.56)" fill="#cdcdcd" stroke="#cdcdcd" stroke-width="0.5"/>
    </g>
    <path id="bell-regular" d="M28.891,23.822c-1.27-1.365-3.647-3.419-3.647-10.145a10.384,10.384,0,0,0-8.413-10.2V2.1a2.1,2.1,0,1,0-4.206,0v1.37a10.384,10.384,0,0,0-8.413,10.2c0,6.727-2.377,8.78-3.647,10.145A2.054,2.054,0,0,0,0,25.25a2.106,2.106,0,0,0,2.111,2.1H27.347a2.106,2.106,0,0,0,2.111-2.1,2.053,2.053,0,0,0-.566-1.428ZM4.44,24.2c1.4-1.839,2.921-4.888,2.928-10.483,0-.013,0-.025,0-.038a7.365,7.365,0,0,1,14.729,0c0,.013,0,.025,0,.038.007,5.6,1.533,8.644,2.928,10.483Zm10.289,9.469a4.208,4.208,0,0,0,4.206-4.208H10.522A4.208,4.208,0,0,0,14.728,33.666Z" transform="translate(1992.467 274.253)" fill="#cdcdcd"/>
  </g>
</svg>
