<svg xmlns="http://www.w3.org/2000/svg" width="69.664" height="17" viewBox="0 0 69.664 17">
  <g id="Grupo_35" data-name="Grupo 35" transform="translate(-57 -350)">
    <path id="twitter_1_" data-name="twitter (1)" d="M8.5,0A8.5,8.5,0,1,0,17,8.5,8.5,8.5,0,0,0,8.5,0Zm3.881,6.627q.006.125.006.252a5.513,5.513,0,0,1-5.551,5.551h0a5.522,5.522,0,0,1-2.99-.876,3.968,3.968,0,0,0,.465.027,3.915,3.915,0,0,0,2.423-.835A1.953,1.953,0,0,1,4.911,9.391a1.945,1.945,0,0,0,.881-.033A1.951,1.951,0,0,1,4.227,7.445c0-.009,0-.017,0-.025a1.938,1.938,0,0,0,.884.244,1.953,1.953,0,0,1-.6-2.6A5.539,5.539,0,0,0,8.528,7.1a1.952,1.952,0,0,1,3.325-1.779,3.913,3.913,0,0,0,1.239-.474,1.959,1.959,0,0,1-.858,1.079,3.891,3.891,0,0,0,1.12-.307,3.965,3.965,0,0,1-.973,1.01Zm0,0" transform="translate(109.664 350)"/>
    <path id="facebook_1_" data-name="facebook (1)" d="M17,8.5A8.5,8.5,0,1,0,8.5,17c.05,0,.1,0,.149,0V10.383H6.823V8.254H8.649V6.687a2.557,2.557,0,0,1,2.729-2.806,14.834,14.834,0,0,1,1.637.083v1.9H11.9c-.88,0-1.053.418-1.053,1.033V8.251h2.108l-.276,2.128H10.847v6.292A8.5,8.5,0,0,0,17,8.5Z" transform="translate(57 350)"/>
    <g id="instagram-sketched" transform="translate(83 350)">
      <path id="Trazado_24" data-name="Trazado 24" d="M210.19,208.595A1.595,1.595,0,1,1,208.595,207,1.595,1.595,0,0,1,210.19,208.595Zm0,0" transform="translate(-200.263 -200.263)"/>
      <path id="Trazado_25" data-name="Trazado 25" d="M143.137,136.589a1.584,1.584,0,0,0-.908-.908,2.647,2.647,0,0,0-.888-.165c-.5-.023-.656-.028-1.933-.028s-1.429,0-1.933.028a2.649,2.649,0,0,0-.888.165,1.585,1.585,0,0,0-.908.908,2.648,2.648,0,0,0-.165.888c-.023.5-.028.656-.028,1.933s0,1.429.028,1.933a2.647,2.647,0,0,0,.165.888,1.584,1.584,0,0,0,.908.908,2.644,2.644,0,0,0,.888.165c.5.023.656.028,1.933.028s1.429,0,1.933-.028a2.644,2.644,0,0,0,.888-.165,1.584,1.584,0,0,0,.908-.908,2.65,2.65,0,0,0,.165-.888c.023-.5.028-.656.028-1.933s0-1.429-.028-1.933A2.644,2.644,0,0,0,143.137,136.589Zm-3.73,5.278a2.457,2.457,0,1,1,2.457-2.457A2.457,2.457,0,0,1,139.407,141.868Zm2.554-4.437a.574.574,0,1,1,.574-.574A.574.574,0,0,1,141.961,137.431Zm0,0" transform="translate(-131.075 -131.079)"/>
      <path id="Trazado_26" data-name="Trazado 26" d="M8.332,0a8.332,8.332,0,1,0,8.332,8.332A8.333,8.333,0,0,0,8.332,0Zm4.756,10.3a3.51,3.51,0,0,1-.222,1.161,2.446,2.446,0,0,1-1.4,1.4,3.513,3.513,0,0,1-1.161.222c-.51.023-.673.029-1.973.029s-1.462-.006-1.973-.029A3.513,3.513,0,0,1,5.2,12.865a2.446,2.446,0,0,1-1.4-1.4A3.509,3.509,0,0,1,3.577,10.3c-.024-.51-.029-.673-.029-1.973s.005-1.462.029-1.973A3.511,3.511,0,0,1,3.8,5.2,2.448,2.448,0,0,1,5.2,3.8a3.513,3.513,0,0,1,1.161-.222c.51-.023.673-.029,1.973-.029s1.462.006,1.973.029a3.514,3.514,0,0,1,1.161.222,2.447,2.447,0,0,1,1.4,1.4,3.51,3.51,0,0,1,.222,1.161c.023.51.029.673.029,1.973S13.111,9.794,13.088,10.3Zm0,0"/>
    </g>
  </g>
</svg>
